<svg version="1.1" xmlns="http://www.w3.org/2000/svg" xmlns:xlink="http://www.w3.org/1999/xlink" width="673" height="584" viewBox="0 0 673 584">
<g id="connect-brands-l">
<g id="right">
<path id="Ellipse-1-copy" d="M607.418,124.429 C729.104,228.432 665.843,400.057 544.780,509.230 C422.508,619.493 292.918,614.644 151.000,441.000 C67.617,338.977 39.689,119.545 121.008,51.476 C201.905,-16.241 475.440,11.630 607.418,124.429 z" fill="#393AA7" />
<path id="Ellipse-4-copy" d="M572.000,447.000 C605.137,447.000 632.000,473.863 632.000,507.000 C632.000,540.137 605.137,567.000 572.000,567.000 C538.863,567.000 512.000,540.137 512.000,507.000 C512.000,473.863 538.863,447.000 572.000,447.000 z" fill="#F67261" />
<path id="Ellipse-4-copy-3" d="M93.000,315.000 C110.673,315.000 125.000,329.327 125.000,347.000 C125.000,364.673 110.673,379.000 93.000,379.000 C75.327,379.000 61.000,364.673 61.000,347.000 C61.000,329.327 75.327,315.000 93.000,315.000 z" fill="#FFC047" />
<path id="Ellipse-5-copy-4" d="M662.000,467.000 C666.971,467.000 671.000,471.029 671.000,476.000 C671.000,480.971 666.971,485.000 662.000,485.000 C657.029,485.000 653.000,480.971 653.000,476.000 C653.000,471.029 657.029,467.000 662.000,467.000 z" fill="#0898E7" />
<path id="Ellipse-5-copy-6" d="M213.500,64.000 C220.404,64.000 226.000,69.596 226.000,76.500 C226.000,83.404 220.404,89.000 213.500,89.000 C206.596,89.000 201.000,83.404 201.000,76.500 C201.000,69.596 206.596,64.000 213.500,64.000 z" fill="#00D2D0" />
<path id="Ellipse-5-copy-5" d="M619.500,-0.000 C630.822,-0.000 640.000,9.178 640.000,20.500 C640.000,31.822 630.822,41.000 619.500,41.000 C608.178,41.000 599.000,31.822 599.000,20.500 C599.000,9.178 608.178,-0.000 619.500,-0.000 z" fill="#00D2D0" />
</g>
<path id="arrows" d="M2.168,192.976 C12.411,190.801 22.591,188.617 32.765,187.426 C41.797,186.368 50.743,187.000 59.825,185.019 C61.939,184.558 62.266,180.877 60.533,180.455 C47.078,177.181 29.729,180.027 13.946,183.993 C26.789,175.045 39.269,167.551 53.790,162.917 C72.262,157.022 90.816,155.177 108.714,155.314 C151.304,155.640 191.789,165.839 229.242,181.046 C230.397,181.515 231.686,178.995 230.551,178.454 C192.735,160.432 150.295,149.790 106.016,149.754 C79.132,149.732 44.568,154.517 17.272,174.093 C22.795,166.591 28.206,158.983 32.835,151.021 C33.632,149.651 32.403,148.232 31.255,149.463 C20.195,161.328 10.660,175.603 0.643,188.592 C-0.745,190.392 0.261,193.381 2.168,192.976 z" fill="#00D6D4" />
<path id="Connect-to-every" d="M564.344,211.503 C562.018,209.434 560.856,206.010 560.856,201.231 C560.856,201.231 560.856,188.111 560.856,188.111 L556.056,188.111 L556.056,178.895 L560.856,178.895 L560.856,170.127 L571.800,170.127 L571.800,178.895 L578.968,178.895 L578.968,188.111 L571.800,188.111 C571.800,188.111 571.800,201.423 571.800,201.423 C571.800,202.831 572.088,203.813 572.664,204.367 C573.240,204.922 574.210,205.199 575.576,205.199 C575.576,205.199 579.032,205.199 579.032,205.199 L579.032,214.607 C579.032,214.607 574.104,214.607 574.104,214.607 C569.922,214.607 566.669,213.573 564.344,211.503 zM562.392,250.303 C564.354,251.541 565.805,253.226 566.744,255.359 C566.744,255.359 566.744,248.895 566.744,248.895 L577.624,248.895 C577.624,248.895 577.624,284.415 577.624,284.415 C577.624,287.743 576.984,290.740 575.704,293.407 C574.424,296.073 572.461,298.196 569.816,299.775 C567.170,301.353 563.885,302.143 559.960,302.143 C554.584,302.143 550.285,300.873 547.064,298.335 C543.842,295.796 541.912,292.351 541.272,287.999 C541.272,287.999 552.088,287.999 552.088,287.999 C552.429,289.449 553.208,290.580 554.424,291.391 C555.640,292.201 557.229,292.607 559.192,292.607 C561.453,292.607 563.277,291.956 564.664,290.655 C566.050,289.353 566.744,287.273 566.744,284.415 C566.744,284.415 566.744,278.143 566.744,278.143 C565.805,280.277 564.354,281.962 562.392,283.199 C560.429,284.437 558.082,285.055 555.352,285.055 C552.408,285.055 549.773,284.319 547.448,282.847 C545.122,281.375 543.288,279.253 541.944,276.479 C540.600,273.706 539.928,270.463 539.928,266.751 C539.928,262.997 540.600,259.743 541.944,256.991 C543.288,254.239 545.122,252.127 547.448,250.655 C549.773,249.183 552.408,248.447 555.352,248.447 C558.082,248.447 560.429,249.066 562.392,250.303 zM553.208,260.351 C551.778,261.887 551.064,264.021 551.064,266.751 C551.064,269.482 551.778,271.615 553.208,273.151 C554.637,274.687 556.525,275.455 558.872,275.455 C561.176,275.455 563.064,274.666 564.536,273.087 C566.008,271.509 566.744,269.397 566.744,266.751 C566.744,264.063 566.008,261.941 564.536,260.383 C563.064,258.826 561.176,258.047 558.872,258.047 C556.525,258.047 554.637,258.815 553.208,260.351 zM535.320,205.647 C536.941,205.647 538.285,205.221 539.352,204.367 C540.418,203.514 541.122,202.319 541.464,200.783 C541.464,200.783 553.048,200.783 553.048,200.783 C552.237,205.221 550.274,208.709 547.160,211.247 C544.045,213.786 540.184,215.055 535.576,215.055 C532.077,215.055 528.973,214.319 526.264,212.847 C523.554,211.375 521.432,209.253 519.896,206.479 C518.360,203.706 517.592,200.463 517.592,196.751 C517.592,192.997 518.349,189.743 519.864,186.991 C521.378,184.239 523.501,182.127 526.232,180.655 C528.962,179.183 532.077,178.447 535.576,178.447 C540.184,178.447 544.045,179.717 547.160,182.255 C550.274,184.794 552.237,188.282 553.048,192.719 C553.048,192.719 541.464,192.719 541.464,192.719 C541.122,191.183 540.418,189.989 539.352,189.135 C538.285,188.282 536.941,187.855 535.320,187.855 C533.400,187.855 531.821,188.613 530.584,190.127 C529.346,191.642 528.728,193.850 528.728,196.751 C528.728,199.653 529.346,201.861 530.584,203.375 C531.821,204.890 533.400,205.647 535.320,205.647 zM530.872,252.607 C533.282,255.338 534.488,259.093 534.488,263.871 C534.488,263.871 534.488,284.607 534.488,284.607 L523.544,284.607 C523.544,284.607 523.544,265.151 523.544,265.151 C523.544,262.762 522.914,260.895 521.656,259.551 C520.397,258.207 518.722,257.535 516.632,257.535 C514.413,257.535 512.653,258.239 511.352,259.647 C510.050,261.055 509.400,263.061 509.400,265.663 C509.400,265.663 509.400,284.607 509.400,284.607 L498.456,284.607 L498.456,248.895 L509.400,248.895 C509.400,248.895 509.400,255.423 509.400,255.423 C510.424,253.290 511.949,251.605 513.976,250.367 C516.002,249.130 518.381,248.511 521.112,248.511 C525.208,248.511 528.461,249.877 530.872,252.607 zM488.601,198.735 C488.729,201.423 489.411,203.354 490.649,204.527 C491.886,205.701 493.465,206.287 495.385,206.287 C497.006,206.287 498.350,205.882 499.417,205.071 C500.483,204.261 501.187,203.215 501.529,201.935 C501.529,201.935 513.113,201.935 513.113,201.935 C512.643,204.453 511.619,206.703 510.041,208.687 C508.462,210.671 506.457,212.229 504.025,213.359 C501.593,214.490 498.883,215.055 495.897,215.055 C492.398,215.055 489.294,214.319 486.585,212.847 C483.875,211.375 481.753,209.253 480.217,206.479 C478.681,203.706 477.913,200.463 477.913,196.751 C477.913,192.997 478.670,189.743 480.185,186.991 C481.699,184.239 483.822,182.127 486.553,180.655 C489.283,179.183 492.398,178.447 495.897,178.447 C499.438,178.447 502.553,179.173 505.241,180.623 C507.929,182.074 510.009,184.111 511.481,186.735 C512.953,189.359 513.689,192.378 513.689,195.791 C513.689,196.687 513.582,197.669 513.369,198.735 C513.369,198.735 488.601,198.735 488.601,198.735 zM500.729,188.847 C499.427,187.674 497.817,187.087 495.897,187.087 C493.891,187.087 492.227,187.685 490.905,188.879 C489.582,190.074 488.835,191.823 488.665,194.127 C488.665,194.127 502.617,194.127 502.617,194.127 C502.659,191.781 502.030,190.021 500.729,188.847 zM461.658,265.151 C461.658,262.762 461.028,260.895 459.770,259.551 C458.511,258.207 456.836,257.535 454.746,257.535 C452.527,257.535 450.767,258.239 449.466,259.647 C448.164,261.055 447.514,263.061 447.514,265.663 C447.514,265.663 447.514,284.607 447.514,284.607 L436.570,284.607 L436.570,237.247 L447.514,237.247 C447.514,237.247 447.514,255.423 447.514,255.423 C448.538,253.290 450.063,251.605 452.090,250.367 C454.116,249.130 456.495,248.511 459.226,248.511 C463.322,248.511 466.575,249.877 468.986,252.607 C471.396,255.338 472.602,259.093 472.602,263.871 C472.602,263.871 472.602,284.607 472.602,284.607 L461.658,284.607 C461.658,284.607 461.658,265.151 461.658,265.151 zM461.530,195.151 C461.530,192.762 460.900,190.895 459.642,189.551 C458.383,188.207 456.708,187.535 454.618,187.535 C452.399,187.535 450.639,188.239 449.338,189.647 C448.035,191.055 447.386,193.061 447.386,195.663 C447.386,195.663 447.386,214.607 447.386,214.607 L436.442,214.607 L436.442,178.895 L447.386,178.895 C447.386,178.895 447.386,185.423 447.386,185.423 C448.410,183.290 449.935,181.605 451.962,180.367 C453.988,179.130 456.367,178.511 459.098,178.511 C463.194,178.511 466.447,179.877 468.858,182.607 C471.268,185.338 472.474,189.093 472.474,193.871 C472.474,193.871 472.474,214.607 472.474,214.607 L461.530,214.607 C461.530,214.607 461.530,195.151 461.530,195.151 zM415.674,281.503 C413.348,279.434 412.186,276.010 412.186,271.231 C412.186,271.231 412.186,258.111 412.186,258.111 L407.386,258.111 L407.386,248.895 L412.186,248.895 L412.186,240.127 L423.130,240.127 L423.130,248.895 L430.298,248.895 L430.298,258.111 L423.130,258.111 C423.130,258.111 423.130,271.423 423.130,271.423 C423.130,272.831 423.418,273.813 423.994,274.367 C424.570,274.922 425.540,275.199 426.906,275.199 C426.906,275.199 430.362,275.199 430.362,275.199 L430.362,284.607 C430.362,284.607 425.434,284.607 425.434,284.607 C421.252,284.607 417.999,283.573 415.674,281.503 zM418.202,195.151 C418.202,192.762 417.572,190.895 416.314,189.551 C415.055,188.207 413.380,187.535 411.290,187.535 C409.071,187.535 407.311,188.239 406.010,189.647 C404.708,191.055 404.058,193.061 404.058,195.663 C404.058,195.663 404.058,214.607 404.058,214.607 L393.114,214.607 L393.114,178.895 L404.058,178.895 C404.058,178.895 404.058,185.423 404.058,185.423 C405.082,183.290 406.607,181.605 408.634,180.367 C410.660,179.130 413.039,178.511 415.770,178.511 C419.866,178.511 423.119,179.877 425.530,182.607 C427.940,185.338 429.146,189.093 429.146,193.871 C429.146,193.871 429.146,214.607 429.146,214.607 L418.202,214.607 C418.202,214.607 418.202,195.151 418.202,195.151 zM378.362,212.847 C375.567,214.319 372.399,215.055 368.858,215.055 C365.316,215.055 362.138,214.319 359.322,212.847 C356.506,211.375 354.298,209.253 352.698,206.479 C351.098,203.706 350.298,200.463 350.298,196.751 C350.298,193.039 351.098,189.797 352.698,187.023 C354.298,184.250 356.506,182.127 359.322,180.655 C362.138,179.183 365.316,178.447 368.858,178.447 C372.399,178.447 375.567,179.183 378.362,180.655 C381.156,182.127 383.354,184.250 384.954,187.023 C386.554,189.797 387.354,193.039 387.354,196.751 C387.354,200.463 386.554,203.706 384.954,206.479 C383.354,209.253 381.156,211.375 378.362,212.847 zM374.106,190.191 C372.698,188.677 370.948,187.919 368.858,187.919 C366.767,187.919 365.007,188.677 363.578,190.191 C362.148,191.706 361.434,193.893 361.434,196.751 C361.434,199.610 362.148,201.786 363.578,203.279 C365.007,204.773 366.767,205.519 368.858,205.519 C370.948,205.519 372.698,204.773 374.106,203.279 C375.514,201.786 376.218,199.610 376.218,196.751 C376.218,193.893 375.514,191.706 374.106,190.191 zM324.123,204.815 C326.555,204.815 328.656,204.218 330.427,203.023 C332.197,201.829 333.509,200.207 334.363,198.159 C334.363,198.159 345.947,198.159 345.947,198.159 C344.837,203.279 342.395,207.365 338.619,210.415 C334.843,213.466 330.075,214.991 324.315,214.991 C319.920,214.991 316.059,214.021 312.731,212.079 C309.403,210.138 306.832,207.418 305.019,203.919 C303.205,200.421 302.299,196.431 302.299,191.951 C302.299,187.471 303.205,183.482 305.019,179.983 C306.832,176.485 309.403,173.765 312.731,171.823 C316.059,169.882 319.920,168.911 324.315,168.911 C330.075,168.911 334.843,170.426 338.619,173.455 C342.395,176.485 344.837,180.581 345.947,185.743 C345.947,185.743 334.363,185.743 334.363,185.743 C333.509,183.653 332.197,182.010 330.427,180.815 C328.656,179.621 326.555,179.023 324.123,179.023 C320.923,179.023 318.341,180.197 316.379,182.543 C314.416,184.890 313.435,188.026 313.435,191.951 C313.435,195.877 314.416,199.002 316.379,201.327 C318.341,203.653 320.923,204.815 324.123,204.815 zM308.700,250.655 C311.430,249.183 314.545,248.447 318.044,248.447 C321.585,248.447 324.700,249.173 327.388,250.623 C330.076,252.074 332.156,254.111 333.628,256.735 C335.100,259.359 335.836,262.378 335.836,265.791 C335.836,266.687 335.729,267.669 335.516,268.735 C335.516,268.735 310.748,268.735 310.748,268.735 C310.876,271.423 311.558,273.354 312.796,274.527 C314.033,275.701 315.612,276.287 317.532,276.287 C319.153,276.287 320.497,275.882 321.564,275.071 C322.630,274.261 323.334,273.215 323.676,271.935 C323.676,271.935 335.260,271.935 335.260,271.935 C334.790,274.453 333.766,276.703 332.188,278.687 C330.609,280.671 328.604,282.229 326.172,283.359 C323.740,284.490 321.030,285.055 318.044,285.055 C314.545,285.055 311.441,284.319 308.732,282.847 C306.022,281.375 303.900,279.253 302.364,276.479 C300.828,273.706 300.060,270.463 300.060,266.751 C300.060,262.997 300.817,259.743 302.332,256.991 C303.846,254.239 305.969,252.127 308.700,250.655 zM324.764,264.127 C324.806,261.781 324.177,260.021 322.876,258.847 C321.574,257.674 319.964,257.087 318.044,257.087 C316.038,257.087 314.374,257.685 313.052,258.879 C311.729,260.074 310.982,261.823 310.812,264.127 C310.812,264.127 324.764,264.127 324.764,264.127 zM271.069,284.607 L258.397,248.895 L270.045,248.895 L277.917,273.919 L285.661,248.895 L297.309,248.895 L284.637,284.607 L271.069,284.607 zM230.558,268.735 C230.686,271.423 231.368,273.354 232.606,274.527 C233.843,275.701 235.422,276.287 237.342,276.287 C238.963,276.287 240.307,275.882 241.374,275.071 C242.440,274.261 243.144,273.215 243.486,271.935 C243.486,271.935 255.070,271.935 255.070,271.935 C254.600,274.453 253.576,276.703 251.998,278.687 C250.419,280.671 248.414,282.229 245.982,283.359 C243.550,284.490 240.840,285.055 237.854,285.055 C234.355,285.055 231.251,284.319 228.542,282.847 C225.832,281.375 223.710,279.253 222.174,276.479 C220.638,273.706 219.870,270.463 219.870,266.751 C219.870,262.997 220.627,259.743 222.142,256.991 C223.656,254.239 225.779,252.127 228.510,250.655 C231.240,249.183 234.355,248.447 237.854,248.447 C241.395,248.447 244.510,249.173 247.198,250.623 C249.886,252.074 251.966,254.111 253.438,256.735 C254.910,259.359 255.646,262.378 255.646,265.791 C255.646,266.687 255.539,267.669 255.326,268.735 C255.326,268.735 230.558,268.735 230.558,268.735 zM242.686,258.847 C241.384,257.674 239.774,257.087 237.854,257.087 C235.848,257.087 234.184,257.685 232.862,258.879 C231.539,260.074 230.792,261.823 230.622,264.127 C230.622,264.127 244.574,264.127 244.574,264.127 C244.616,261.781 243.987,260.021 242.686,258.847 zM194.110,282.847 C191.315,284.319 188.147,285.055 184.606,285.055 C181.064,285.055 177.886,284.319 175.070,282.847 C172.254,281.375 170.046,279.253 168.446,276.479 C166.846,273.706 166.046,270.463 166.046,266.751 C166.046,263.039 166.846,259.797 168.446,257.023 C170.046,254.250 172.254,252.127 175.070,250.655 C177.886,249.183 181.064,248.447 184.606,248.447 C188.147,248.447 191.315,249.183 194.110,250.655 C196.904,252.127 199.102,254.250 200.702,257.023 C202.302,259.797 203.102,263.039 203.102,266.751 C203.102,270.463 202.302,273.706 200.702,276.479 C199.102,279.253 196.904,281.375 194.110,282.847 zM189.854,260.191 C188.446,258.677 186.696,257.919 184.606,257.919 C182.515,257.919 180.755,258.677 179.326,260.191 C177.896,261.706 177.182,263.893 177.182,266.751 C177.182,269.610 177.896,271.786 179.326,273.279 C180.755,274.773 182.515,275.519 184.606,275.519 C186.696,275.519 188.446,274.773 189.854,273.279 C191.262,271.786 191.966,269.610 191.966,266.751 C191.966,263.893 191.262,261.706 189.854,260.191 zM147.007,281.503 C144.681,279.434 143.519,276.010 143.519,271.231 C143.519,271.231 143.519,258.111 143.519,258.111 L138.719,258.111 L138.719,248.895 L143.519,248.895 L143.519,240.127 L154.463,240.127 L154.463,248.895 L161.631,248.895 L161.631,258.111 L154.463,258.111 C154.463,258.111 154.463,271.423 154.463,271.423 C154.463,272.831 154.751,273.813 155.327,274.367 C155.903,274.922 156.873,275.199 158.239,275.199 C158.239,275.199 161.695,275.199 161.695,275.199 L161.695,284.607 C161.695,284.607 156.767,284.607 156.767,284.607 C152.585,284.607 149.332,283.573 147.007,281.503 zM316.189,318.895 L324.765,340.783 L332.765,318.895 L344.861,318.895 L322.589,371.631 L310.557,371.631 L318.941,353.263 L303.965,318.895 L316.189,318.895 zM341.595,284.607 L341.595,248.895 L352.539,248.895 C352.539,248.895 352.539,255.615 352.539,255.615 C353.904,253.439 355.664,251.711 357.819,250.431 C359.973,249.151 362.309,248.511 364.827,248.511 C364.827,248.511 364.827,260.223 364.827,260.223 C364.827,260.223 361.691,260.223 361.691,260.223 C358.789,260.223 356.539,260.842 354.939,262.079 C353.339,263.317 352.539,265.407 352.539,268.351 C352.539,268.351 352.539,284.607 352.539,284.607 L341.595,284.607 zM355.740,320.655 C358.556,319.183 361.734,318.447 365.276,318.447 C368.817,318.447 371.985,319.183 374.780,320.655 C377.574,322.127 379.772,324.250 381.372,327.023 C382.972,329.797 383.772,333.039 383.772,336.751 C383.772,340.463 382.972,343.706 381.372,346.479 C379.772,349.253 377.574,351.375 374.780,352.847 C371.985,354.319 368.817,355.055 365.276,355.055 C361.734,355.055 358.556,354.319 355.740,352.847 C352.924,351.375 350.716,349.253 349.116,346.479 C347.516,343.706 346.716,340.463 346.716,336.751 C346.716,333.039 347.516,329.797 349.116,327.023 C350.716,324.250 352.924,322.127 355.740,320.655 zM359.996,343.279 C361.425,344.773 363.185,345.519 365.276,345.519 C367.366,345.519 369.116,344.773 370.524,343.279 C371.932,341.786 372.636,339.610 372.636,336.751 C372.636,333.893 371.932,331.706 370.524,330.191 C369.116,328.677 367.366,327.919 365.276,327.919 C363.185,327.919 361.425,328.677 359.996,330.191 C358.566,331.706 357.852,333.893 357.852,336.751 C357.852,339.610 358.566,341.786 359.996,343.279 zM380.507,283.263 L365.531,248.895 L377.755,248.895 L386.331,270.783 L394.331,248.895 L406.427,248.895 L384.155,301.631 L372.123,301.631 L380.507,283.263 zM399.899,338.287 C399.899,340.719 400.528,342.607 401.787,343.951 C403.045,345.295 404.741,345.967 406.875,345.967 C409.093,345.967 410.843,345.263 412.123,343.855 C413.403,342.447 414.043,340.442 414.043,337.839 C414.043,337.839 414.043,318.895 414.043,318.895 L425.051,318.895 L425.051,354.607 L414.043,354.607 C414.043,354.607 414.043,348.143 414.043,348.143 C413.019,350.234 411.493,351.898 409.467,353.135 C407.440,354.373 405.083,354.991 402.395,354.991 C398.299,354.991 395.045,353.626 392.635,350.895 C390.224,348.165 389.019,344.410 389.019,339.631 C389.019,339.631 389.019,318.895 389.019,318.895 L399.899,318.895 C399.899,318.895 399.899,338.287 399.899,338.287 zM456.474,354.607 L445.530,354.607 L445.530,307.247 L456.474,307.247 L456.474,354.607 zM490.841,284.607 L479.897,284.607 L479.897,248.895 L490.841,248.895 L490.841,284.607 zM480.665,234.719 C481.859,233.631 483.438,233.087 485.401,233.087 C487.363,233.087 488.942,233.631 490.137,234.719 C491.331,235.807 491.929,237.183 491.929,238.847 C491.929,240.469 491.331,241.823 490.137,242.911 C488.942,243.999 487.363,244.543 485.401,244.543 C483.438,244.543 481.859,243.999 480.665,242.911 C479.470,241.823 478.873,240.469 478.873,238.847 C478.873,237.183 479.470,235.807 480.665,234.719 zM471.258,320.655 C474.074,319.183 477.252,318.447 480.794,318.447 C484.335,318.447 487.503,319.183 490.298,320.655 C493.092,322.127 495.290,324.250 496.890,327.023 C498.490,329.797 499.290,333.039 499.290,336.751 C499.290,340.463 498.490,343.706 496.890,346.479 C495.290,349.253 493.092,351.375 490.298,352.847 C487.503,354.319 484.335,355.055 480.794,355.055 C477.252,355.055 474.074,354.319 471.258,352.847 C468.442,351.375 466.234,349.253 464.634,346.479 C463.034,343.706 462.234,340.463 462.234,336.751 C462.234,333.039 463.034,329.797 464.634,327.023 C466.234,324.250 468.442,322.127 471.258,320.655 zM475.514,343.279 C476.943,344.773 478.703,345.519 480.794,345.519 C482.884,345.519 484.634,344.773 486.042,343.279 C487.450,341.786 488.154,339.610 488.154,336.751 C488.154,333.893 487.450,331.706 486.042,330.191 C484.634,328.677 482.884,327.919 480.794,327.919 C478.703,327.919 476.943,328.677 475.514,330.191 C474.084,331.706 473.370,333.893 473.370,336.751 C473.370,339.610 474.084,341.786 475.514,343.279 zM521.561,343.919 L529.305,318.895 L540.953,318.895 L528.281,354.607 L514.713,354.607 L502.041,318.895 L513.689,318.895 L521.561,343.919 zM552.344,320.655 C555.074,319.183 558.189,318.447 561.688,318.447 C565.229,318.447 568.344,319.173 571.032,320.623 C573.720,322.074 575.800,324.111 577.272,326.735 C578.744,329.359 579.480,332.378 579.480,335.791 C579.480,336.687 579.373,337.669 579.160,338.735 C579.160,338.735 554.392,338.735 554.392,338.735 C554.520,341.423 555.202,343.354 556.440,344.527 C557.677,345.701 559.256,346.287 561.176,346.287 C562.797,346.287 564.141,345.882 565.208,345.071 C566.274,344.261 566.978,343.215 567.320,341.935 C567.320,341.935 578.904,341.935 578.904,341.935 C578.434,344.453 577.410,346.703 575.832,348.687 C574.253,350.671 572.248,352.229 569.816,353.359 C567.384,354.490 564.674,355.055 561.688,355.055 C558.189,355.055 555.085,354.319 552.376,352.847 C549.666,351.375 547.544,349.253 546.008,346.479 C544.472,343.706 543.704,340.463 543.704,336.751 C543.704,332.997 544.461,329.743 545.976,326.991 C547.490,324.239 549.613,322.127 552.344,320.655 zM568.408,334.127 C568.450,331.781 567.821,330.021 566.520,328.847 C565.218,327.674 563.608,327.087 561.688,327.087 C559.682,327.087 558.018,327.685 556.696,328.879 C555.373,330.074 554.626,331.823 554.456,334.127 C554.456,334.127 568.408,334.127 568.408,334.127 z" fill="#FFFFFF" />
</g>
</svg>
